<svg width="320" height="320" viewBox="0 0 320 320" fill="none" xmlns="http://www.w3.org/2000/svg">
<rect width="320" height="320" fill="white"/>
<rect x="16" y="125" width="278" height="150" rx="15" stroke="#4D4D4D" stroke-width="2"/>
<rect x="25" y="133" width="260" height="134" rx="10" stroke="#4D4D4D" stroke-width="2" stroke-linecap="round" stroke-dasharray="4 8"/>
<path d="M242 184C242 175.716 248.716 169 257 169H297C300.866 169 304 172.134 304 176V224C304 227.866 300.866 231 297 231H257C248.716 231 242 224.284 242 216V184Z" fill="white" stroke="#4D4D4D" stroke-width="2"/>
<path d="M264.968 189.583C267.372 188.894 269.938 189.044 272.245 190.009C274.552 190.974 276.461 192.696 277.658 194.892C278.855 197.087 279.268 199.625 278.83 202.086C278.391 204.548 277.127 206.787 275.246 208.434C273.364 210.081 270.978 211.038 268.48 211.147C265.982 211.256 263.521 210.511 261.503 209.034C259.486 207.557 258.031 205.437 257.38 203.023C256.729 200.609 256.919 198.045 257.92 195.753" stroke="#4C4C4C" stroke-width="2" stroke-linecap="round"/>
<circle cx="177" cy="200" r="27" stroke="white" stroke-width="6"/>
<circle cx="177" cy="200" r="20" stroke="#FFC71F" stroke-width="8"/>
<circle cx="137" cy="200" r="27" stroke="white" stroke-width="6"/>
<circle cx="137" cy="200" r="20" stroke="#FFC71F" stroke-width="8"/>
<circle cx="97" cy="200" r="27" stroke="white" stroke-width="6"/>
<circle cx="97" cy="200" r="20" stroke="#FFC71F" stroke-width="8"/>
</svg>
