<?xml version="1.0" encoding="UTF-8"?>
<!DOCTYPE svg PUBLIC "-//W3C//DTD SVG 1.1//EN" "http://www.w3.org/Graphics/SVG/1.1/DTD/svg11.dtd">
<!-- Creator: CorelDRAW -->
<svg xmlns="http://www.w3.org/2000/svg" xml:space="preserve" width="120px" height="96px" version="1.1" style="shape-rendering:geometricPrecision; text-rendering:geometricPrecision; image-rendering:optimizeQuality; fill-rule:evenodd; clip-rule:evenodd"
viewBox="0 0 4.086 3.269"
 xmlns:xlink="http://www.w3.org/1999/xlink"
 xmlns:xodm="http://www.corel.com/coreldraw/odm/2003">
 <defs>
  <style type="text/css">
   <![CDATA[
    .str1 {stroke:#1A1A1A;stroke-width:0.068;stroke-miterlimit:2.61313}
    .str0 {stroke:#1A1A1A;stroke-width:0.068;stroke-linecap:round;stroke-miterlimit:2.61313}
    .fil0 {fill:none}
    .fil1 {fill:#FCC730}
   ]]>
  </style>
 </defs>
 <g id="Layer_x0020_1">
  <metadata id="CorelCorpID_0Corel-Layer"/>
  <rect class="fil0" width="4.086" height="3.269"/>
  <path class="fil0 str0" d="M1.584 2.335l-0.797 0c-0.11,0 -0.2,-0.092 -0.2,-0.204l0 -1.423c0,-0.112 0.09,-0.204 0.2,-0.204l2.469 0c0.11,0 0.199,0.092 0.199,0.204l0 0.577"/>
  <line class="fil0 str1" x1="0.587" y1="0.885" x2="3.455" y2= "0.885" />
  <path class="fil1" d="M2.813 2.153l0 0c0.012,0.008 0.099,0.008 0.15,0.045 0.026,0.018 0.03,0.053 0.03,0.111 0,0.058 -0.004,0.093 -0.03,0.112 -0.051,0.037 -0.138,0.037 -0.15,0.044l0 0.001c-0.017,0.042 -0.039,0.082 -0.068,0.117l-0.001 0.002c0,0.014 0.043,0.09 0.036,0.152 -0.003,0.032 -0.031,0.053 -0.081,0.082 -0.051,0.029 -0.083,0.043 -0.112,0.03 -0.057,-0.026 -0.101,-0.101 -0.114,-0.108l-0.001 0c-0.045,0.007 -0.09,0.007 -0.135,0l-0.001 0c-0.013,0.007 -0.057,0.082 -0.114,0.108 -0.029,0.013 -0.061,-0.001 -0.112,-0.03 -0.05,-0.029 -0.078,-0.05 -0.081,-0.082 -0.007,-0.062 0.037,-0.138 0.036,-0.152l-0.001 -0.002c-0.028,-0.035 -0.051,-0.075 -0.067,-0.117l0 -0.001c-0.013,-0.007 -0.1,-0.007 -0.151,-0.044 -0.025,-0.019 -0.03,-0.054 -0.03,-0.112 0,-0.058 0.005,-0.093 0.03,-0.111 0.051,-0.037 0.138,-0.037 0.151,-0.045l0 0c0.016,-0.043 0.039,-0.082 0.067,-0.117l0.001 -0.002c0.001,-0.015 -0.043,-0.09 -0.036,-0.153 0.003,-0.031 0.031,-0.052 0.081,-0.081 0.051,-0.029 0.083,-0.043 0.112,-0.03 0.057,0.026 0.101,0.101 0.114,0.108l0.001 0c0.045,-0.007 0.09,-0.007 0.135,0l0.001 0c0.013,-0.007 0.057,-0.082 0.114,-0.108 0.029,-0.013 0.061,0.001 0.112,0.03 0.05,0.029 0.078,0.05 0.081,0.081 0.007,0.063 -0.036,0.138 -0.036,0.153l0.001 0.002c0.029,0.035 0.051,0.074 0.068,0.117zm-0.408 -0.046c0.112,0 0.202,0.09 0.202,0.202 0,0.112 -0.09,0.203 -0.202,0.203 -0.112,0 -0.203,-0.091 -0.203,-0.203 0,-0.112 0.091,-0.202 0.203,-0.202z"/>
  <path class="fil1" d="M3.573 1.813l0 0c0.007,0.01 0.066,0.04 0.088,0.082 0.011,0.022 0.002,0.047 -0.017,0.086 -0.02,0.04 -0.035,0.063 -0.059,0.067 -0.047,0.007 -0.107,-0.022 -0.118,-0.021l0 0c-0.026,0.023 -0.055,0.043 -0.086,0.057l-0.002 0.001c-0.005,0.01 -0.001,0.076 -0.027,0.117 -0.013,0.02 -0.039,0.025 -0.084,0.028 -0.044,0.002 -0.071,0.001 -0.086,-0.018 -0.03,-0.037 -0.035,-0.103 -0.041,-0.113l-0.001 0c-0.033,-0.01 -0.064,-0.026 -0.093,-0.046l0 -0.001c-0.012,0.001 -0.067,0.037 -0.115,0.035 -0.024,-0.001 -0.041,-0.021 -0.066,-0.058 -0.025,-0.037 -0.036,-0.061 -0.028,-0.084 0.017,-0.045 0.072,-0.081 0.077,-0.092l0 -0.001c-0.008,-0.034 -0.01,-0.069 -0.006,-0.103l0 -0.001c-0.007,-0.009 -0.066,-0.039 -0.088,-0.082 -0.011,-0.021 -0.002,-0.046 0.018,-0.086 0.019,-0.04 0.034,-0.062 0.058,-0.066 0.047,-0.008 0.107,0.022 0.118,0.021l0 0c0.026,-0.024 0.055,-0.043 0.087,-0.058l0.001 0c0.005,-0.01 0.001,-0.077 0.027,-0.117 0.013,-0.021 0.039,-0.025 0.084,-0.028 0.044,-0.003 0.071,-0.001 0.086,0.017 0.03,0.038 0.035,0.104 0.041,0.113l0.001 0c0.033,0.011 0.064,0.027 0.093,0.047l0 0c0.012,0 0.067,-0.037 0.115,-0.035 0.024,0.001 0.042,0.022 0.066,0.059 0.025,0.037 0.037,0.061 0.028,0.083 -0.017,0.045 -0.072,0.082 -0.077,0.092l0 0.002c0.008,0.034 0.01,0.068 0.006,0.103zm-0.263 -0.171c0.077,0.038 0.108,0.131 0.07,0.208 -0.038,0.077 -0.132,0.108 -0.208,0.069 -0.077,-0.038 -0.108,-0.131 -0.07,-0.207 0.039,-0.077 0.132,-0.108 0.208,-0.07z"/>
 </g>
</svg>
