<?xml version="1.0" encoding="UTF-8"?>
<!DOCTYPE svg PUBLIC "-//W3C//DTD SVG 1.1//EN" "http://www.w3.org/Graphics/SVG/1.1/DTD/svg11.dtd">
<!-- Creator: CorelDRAW -->
<svg xmlns="http://www.w3.org/2000/svg" xml:space="preserve" width="120px" height="96px" version="1.1" style="shape-rendering:geometricPrecision; text-rendering:geometricPrecision; image-rendering:optimizeQuality; fill-rule:evenodd; clip-rule:evenodd"
viewBox="0 0 4.086 3.269"
 xmlns:xlink="http://www.w3.org/1999/xlink"
 xmlns:xodm="http://www.corel.com/coreldraw/odm/2003">
 <defs>
  <style type="text/css">
   <![CDATA[
    .str0 {stroke:#1A1A1A;stroke-width:0.068;stroke-miterlimit:2.61313}
    .fil0 {fill:none}
    .fil2 {fill:#FCC730}
    .fil1 {fill:#1A1A1A;fill-rule:nonzero}
   ]]>
  </style>
 </defs>
 <g id="Layer_x0020_1">
  <metadata id="CorelCorpID_0Corel-Layer"/>
  <rect class="fil0" width="4.086" height="3.269"/>
  <path class="fil0 str0" d="M2.622 2.384l-2.194 0c-0.104,0 -0.19,-0.086 -0.19,-0.19l0 -1.324c0,-0.104 0.086,-0.189 0.19,-0.189l2.345 0c0.104,0 0.19,0.085 0.19,0.189l0 0.799"/>
  <g>
   <path class="fil1" d="M2.179 2.69l0 -0.136 0.068 0 0 0.136 0 0 -0.068 0zm0 0.066l0 -0.063 0 0 0 0 0 0 0 0 0 0 0 0 0 0 -0.001 0 0 0 0 0 0 0 0 0 0 0 0 0 0 0 0 0 0 0 0 0 0 0 0.001 0 0 0 0 -0.001 0 0 0 0 0 0 0 0 0 0 0 -0.001 0 0 0 0 0 0 0 -0.001 0 0 0.068 0 0 0.003 0 0.004 0 0.003 -0.001 0.003 -0.001 0.003 0 0.003 -0.001 0.003 -0.002 0.003 -0.001 0.003 -0.001 0.002 -0.002 0.003 -0.001 0.003 -0.002 0.002 -0.002 0.003 -0.002 0.002 -0.002 0.002 -0.003 0.003 -0.002 0.002 -0.003 0.002 -0.002 0.002 -0.003 0.001 -0.003 0.002 -0.003 0.002 -0.003 0.001 -0.003 0.001 -0.004 0.001 -0.003 0.001 -0.003 0.001 -0.004 0.001 -0.003 0 -0.004 0 -0.004 0.001 0 0zm-1.157 -0.063l1.157 0 0 0.063 -1.157 0 0 0 0 -0.063zm-0.069 -0.003l0.069 0 0 0 0 0 0 0.001 0 0 0 0 0 0 0 0.001 0 0 0 0 0 0 0 0 0 0 0 0.001 0 0 0 0 0.001 0 0 0 0 0 0 0 0 0 0 0 0 0 0 0 0 0 0 0 0 0 -0.001 0 0 0 0 0 0 0 0 0 0 0 0 0 0 0.063 -0.004 -0.001 -0.004 0 -0.003 0 -0.004 -0.001 -0.003 -0.001 -0.003 -0.001 -0.004 -0.001 -0.003 -0.001 -0.003 -0.001 -0.003 -0.002 -0.003 -0.002 -0.003 -0.001 -0.002 -0.002 -0.003 -0.002 -0.002 -0.002 -0.003 -0.003 -0.002 -0.002 -0.002 -0.002 -0.002 -0.003 -0.002 -0.002 -0.001 -0.003 -0.002 -0.003 -0.001 -0.002 -0.002 -0.003 -0.001 -0.003 -0.001 -0.003 -0.001 -0.003 0 -0.003 -0.001 -0.003 0 -0.003 0 -0.004 -0.001 -0.003 0 0zm0.069 -0.136l0 0.136 -0.069 0 0 -0.136 0 0 0.069 0zm0 -0.065l0 0.062 0 0 0 0 0 0 0 0 0 0 0 0 0 0 0.001 0 0 0 0 0 0 0 0 0 0 0 0 0 0 0 0 0 0 0 0 0 -0.001 0 0 0 0 0 0 0.001 0 0 0 0 0 0 0 0 0 0 0 0.001 0 0 0 0 0 0 0 0.001 0 0 -0.069 0 0.001 -0.003 0 -0.003 0 -0.004 0.001 -0.003 0 -0.003 0.001 -0.003 0.001 -0.003 0.001 -0.003 0.002 -0.003 0.001 -0.002 0.002 -0.003 0.001 -0.003 0.002 -0.002 0.002 -0.003 0.002 -0.002 0.002 -0.002 0.003 -0.003 0.002 -0.002 0.003 -0.002 0.002 -0.002 0.003 -0.001 0.003 -0.002 0.003 -0.001 0.003 -0.002 0.003 -0.001 0.004 -0.001 0.003 -0.001 0.003 -0.001 0.004 -0.001 0.003 0 0.004 0 0.004 0 0 0zm1.157 0.062l-1.157 0 0 -0.062 1.157 0 0 0 0 0.062zm0.068 0.003l-0.068 0 0 0 0 0 0 -0.001 0 0 0 0 0 0 0 -0.001 0 0 0 0 0 0 0 0 0 0 0 -0.001 0 0 -0.001 0 0 0 0 0 0 0 0 0 0 0 0 0 0 0 0 0 0 0 0 0 0 0 0.001 0 0 0 0 0 0 0 0 0 0 0 0 0 0 -0.062 0.004 0 0.004 0 0.003 0 0.004 0.001 0.003 0.001 0.003 0.001 0.004 0.001 0.003 0.001 0.003 0.002 0.003 0.001 0.003 0.002 0.003 0.001 0.002 0.002 0.003 0.002 0.002 0.002 0.003 0.003 0.002 0.002 0.002 0.002 0.002 0.003 0.002 0.002 0.001 0.003 0.002 0.003 0.001 0.002 0.001 0.003 0.002 0.003 0.001 0.003 0 0.003 0.001 0.003 0.001 0.003 0 0.004 0 0.003 0 0.003 0 0z"/>
  </g>
  <path class="fil2" d="M2.006 1.26c0.147,0 0.266,0.122 0.266,0.272 0,0.151 -0.119,0.273 -0.266,0.273 -0.056,0 -0.108,-0.018 -0.151,-0.048 0.027,-0.031 0.048,-0.068 0.062,-0.108 0.024,0.02 0.055,0.031 0.089,0.031 0.08,0 0.144,-0.066 0.144,-0.148 0,-0.081 -0.064,-0.148 -0.144,-0.148 -0.034,0 -0.065,0.012 -0.089,0.031 -0.014,-0.04 -0.035,-0.076 -0.062,-0.107 0.043,-0.03 0.095,-0.048 0.151,-0.048zm-0.404 0c0.147,0 0.267,0.122 0.267,0.272 0,0.151 -0.12,0.273 -0.267,0.273 -0.057,0 -0.109,-0.019 -0.153,-0.05 0.027,-0.031 0.048,-0.068 0.062,-0.108 0.025,0.021 0.057,0.033 0.091,0.033 0.08,0 0.145,-0.066 0.145,-0.148 0,-0.081 -0.065,-0.148 -0.145,-0.148 -0.034,0 -0.066,0.013 -0.091,0.034 -0.014,-0.04 -0.035,-0.077 -0.062,-0.108 0.044,-0.032 0.096,-0.05 0.153,-0.05zm-0.407 0c0.147,0 0.266,0.122 0.266,0.272 0,0.151 -0.119,0.273 -0.266,0.273 -0.147,0 -0.266,-0.122 -0.266,-0.273 0,-0.15 0.119,-0.272 0.266,-0.272zm0 0.124c0.08,0 0.145,0.067 0.145,0.148 0,0.082 -0.065,0.148 -0.145,0.148 -0.08,0 -0.145,-0.066 -0.145,-0.148 0,-0.081 0.065,-0.148 0.145,-0.148z"/>
  <g>
   <path class="fil1" d="M3.201 1.701l-0.477 0 0 -0.065 0.477 0 0 0 0 0.065zm0.135 0.07l-0.065 0 0 0 -0.001 -0.004 0 -0.003 0 -0.004 -0.001 -0.003 -0.001 -0.004 -0.001 -0.003 -0.001 -0.003 -0.001 -0.003 -0.001 -0.003 -0.002 -0.003 -0.002 -0.003 -0.001 -0.003 -0.002 -0.003 -0.002 -0.002 -0.003 -0.003 -0.002 -0.002 -0.002 -0.003 -0.003 -0.002 -0.003 -0.002 -0.002 -0.002 -0.003 -0.002 -0.003 -0.001 -0.003 -0.002 -0.003 -0.001 -0.003 -0.002 -0.003 -0.001 -0.004 -0.001 -0.003 0 -0.004 -0.001 -0.003 -0.001 -0.003 0 -0.004 0 0 -0.065 0.007 0 0.007 0.001 0.006 0.001 0.007 0.001 0.007 0.001 0.006 0.002 0.006 0.002 0.006 0.003 0.006 0.002 0.006 0.003 0.006 0.004 0.005 0.003 0.005 0.004 0.006 0.004 0.004 0.004 0.005 0.005 0.005 0.004 0.004 0.005 0.004 0.005 0.004 0.005 0.003 0.006 0.003 0.006 0.003 0.005 0.003 0.006 0.002 0.006 0.003 0.007 0.001 0.006 0.002 0.007 0.001 0.006 0.001 0.007 0 0.007 0.001 0.007 0 0zm-0.065 0.885l0 -0.885 0.065 0 0 0.885 0 0 -0.065 0zm-0.07 0.135l0 -0.065 0 0 0.004 0 0.003 -0.001 0.003 0 0.004 -0.001 0.003 -0.001 0.004 0 0.003 -0.002 0.003 -0.001 0.003 -0.001 0.003 -0.002 0.003 -0.001 0.003 -0.002 0.002 -0.002 0.003 -0.002 0.003 -0.002 0.002 -0.003 0.002 -0.002 0.003 -0.003 0.002 -0.002 0.002 -0.003 0.001 -0.003 0.002 -0.003 0.002 -0.003 0.001 -0.003 0.001 -0.003 0.001 -0.003 0.001 -0.004 0.001 -0.003 0.001 -0.003 0 -0.004 0 -0.003 0.001 -0.004 0.065 0 -0.001 0.007 0 0.007 -0.001 0.007 -0.001 0.006 -0.002 0.007 -0.001 0.006 -0.003 0.006 -0.002 0.006 -0.003 0.006 -0.003 0.006 -0.003 0.006 -0.003 0.005 -0.004 0.006 -0.004 0.005 -0.004 0.005 -0.005 0.004 -0.005 0.005 -0.004 0.004 -0.006 0.004 -0.005 0.004 -0.005 0.003 -0.006 0.003 -0.006 0.003 -0.006 0.003 -0.006 0.003 -0.006 0.002 -0.006 0.002 -0.007 0.001 -0.007 0.001 -0.006 0.001 -0.007 0.001 -0.007 0 0 0zm-0.477 -0.065l0.477 0 0 0.065 -0.477 0 0 0 0 -0.065zm-0.135 -0.07l0.066 0 0 0 0 0.004 0 0.003 0 0.004 0.001 0.003 0.001 0.003 0.001 0.004 0.001 0.003 0.001 0.003 0.001 0.003 0.002 0.003 0.002 0.003 0.001 0.003 0.002 0.003 0.002 0.002 0.003 0.003 0.002 0.002 0.003 0.003 0.002 0.002 0.003 0.002 0.002 0.002 0.003 0.002 0.003 0.001 0.003 0.002 0.003 0.001 0.003 0.001 0.004 0.002 0.003 0 0.003 0.001 0.004 0.001 0.003 0 0.004 0.001 0.003 0 0 0.065 -0.007 0 -0.007 -0.001 -0.006 -0.001 -0.007 -0.001 -0.006 -0.001 -0.007 -0.002 -0.006 -0.002 -0.006 -0.003 -0.006 -0.003 -0.006 -0.003 -0.006 -0.003 -0.005 -0.003 -0.005 -0.004 -0.005 -0.004 -0.005 -0.004 -0.005 -0.005 -0.004 -0.004 -0.005 -0.005 -0.004 -0.005 -0.003 -0.006 -0.004 -0.005 -0.003 -0.006 -0.003 -0.006 -0.003 -0.006 -0.002 -0.006 -0.002 -0.006 -0.002 -0.006 -0.002 -0.007 -0.001 -0.006 -0.001 -0.007 0 -0.007 -0.001 -0.007 0 0zm0.066 -0.885l0 0.885 -0.066 0 0 -0.885 0 0 0.066 0zm0.069 -0.135l0 0.065 0 0 -0.003 0 -0.004 0 -0.003 0.001 -0.004 0.001 -0.003 0 -0.003 0.001 -0.004 0.001 -0.003 0.002 -0.003 0.001 -0.003 0.002 -0.003 0.001 -0.003 0.002 -0.002 0.002 -0.003 0.002 -0.002 0.002 -0.003 0.003 -0.002 0.002 -0.003 0.003 -0.002 0.002 -0.002 0.003 -0.001 0.003 -0.002 0.003 -0.002 0.003 -0.001 0.003 -0.001 0.003 -0.001 0.003 -0.001 0.003 -0.001 0.004 -0.001 0.003 0 0.004 0 0.003 0 0.004 -0.066 0 0.001 -0.007 0 -0.007 0.001 -0.007 0.001 -0.006 0.002 -0.007 0.002 -0.006 0.002 -0.007 0.002 -0.006 0.003 -0.006 0.003 -0.005 0.003 -0.006 0.004 -0.006 0.003 -0.005 0.004 -0.005 0.005 -0.005 0.004 -0.004 0.005 -0.005 0.005 -0.004 0.005 -0.004 0.005 -0.004 0.005 -0.003 0.006 -0.004 0.006 -0.003 0.006 -0.002 0.006 -0.003 0.006 -0.002 0.007 -0.002 0.006 -0.001 0.007 -0.001 0.006 -0.001 0.007 -0.001 0.007 0 0 0z"/>
  </g>
  <polygon class="fil2" points="3.541,0.545 3.629,0.831 3.916,0.919 3.629,1.007 3.541,1.294 3.453,1.007 3.167,0.919 3.453,0.831 "/>
 </g>
</svg>
