<?xml version="1.0" encoding="UTF-8"?>
<!DOCTYPE svg PUBLIC "-//W3C//DTD SVG 1.1//EN" "http://www.w3.org/Graphics/SVG/1.1/DTD/svg11.dtd">
<!-- Creator: CorelDRAW -->
<svg xmlns="http://www.w3.org/2000/svg" xml:space="preserve" width="120px" height="96px" version="1.1" style="shape-rendering:geometricPrecision; text-rendering:geometricPrecision; image-rendering:optimizeQuality; fill-rule:evenodd; clip-rule:evenodd"
viewBox="0 0 4.086 3.269"
 xmlns:xlink="http://www.w3.org/1999/xlink"
 xmlns:xodm="http://www.corel.com/coreldraw/odm/2003">
 <defs>
  <style type="text/css">
   <![CDATA[
    .fil0 {fill:none}
    .fil1 {fill:#FCC730}
    .fil2 {fill:#1A1A1A;fill-rule:nonzero}
   ]]>
  </style>
 </defs>
 <g id="Layer_x0020_1">
  <metadata id="CorelCorpID_0Corel-Layer"/>
  <rect class="fil0" width="4.086" height="3.269"/>
  <path class="fil1" d="M0.936 1.124l0.545 0c0.019,0 0.034,0.015 0.034,0.034l0 0.136c0,0.019 -0.015,0.034 -0.034,0.034l-0.545 0c-0.018,0 -0.034,-0.015 -0.034,-0.034l0 -0.136c0,-0.019 0.016,-0.034 0.034,-0.034zm0.647 -0.477l0.545 0c0.019,0 0.034,0.015 0.034,0.034l0 0.102 -0.085 0c-0.055,0 -0.105,0.027 -0.136,0.068l-0.358 0c-0.018,0 -0.034,-0.015 -0.034,-0.034l0 -0.136c0,-0.019 0.016,-0.034 0.034,-0.034zm0 -0.238l0.545 0c0.019,0 0.034,0.015 0.034,0.034l0 0.136c0,0.019 -0.015,0.034 -0.034,0.034l-0.545 0c-0.018,0 -0.034,-0.015 -0.034,-0.034l0 -0.136c0,-0.019 0.016,-0.034 0.034,-0.034zm0 0.476l0.338 0c-0.009,0.021 -0.014,0.044 -0.014,0.068l0 0.137 -0.324 0c-0.018,0 -0.034,-0.016 -0.034,-0.034l0 -0.137c0,-0.018 0.016,-0.034 0.034,-0.034zm0 0.239l0.324 0 0 0.204 -0.324 0c-0.018,0 -0.034,-0.015 -0.034,-0.034l0 -0.136c0,-0.019 0.016,-0.034 0.034,-0.034zm0 0.238l0.324 0 0 0.204 -0.324 0c-0.018,0 -0.034,-0.015 -0.034,-0.034l0 -0.136c0,-0.019 0.016,-0.034 0.034,-0.034zm0 0.238l0.324 0 0 0.205 -0.324 0c-0.018,0 -0.034,-0.016 -0.034,-0.034l0 -0.136c0,-0.019 0.016,-0.035 0.034,-0.035zm0 0.239l0.324 0 0 0.204 -0.324 0c-0.018,0 -0.034,-0.015 -0.034,-0.034l0 -0.136c0,-0.019 0.016,-0.034 0.034,-0.034zm0 0.238l0.324 0 0 0.205 -0.324 0c-0.018,0 -0.034,-0.016 -0.034,-0.035l0 -0.136c0,-0.018 0.016,-0.034 0.034,-0.034zm0 0.239l0.324 0 0 0.204 -0.324 0c-0.018,0 -0.034,-0.015 -0.034,-0.034l0 -0.136c0,-0.019 0.016,-0.034 0.034,-0.034zm-0.647 0l0.545 0c0.019,0 0.034,0.015 0.034,0.034l0 0.136c0,0.019 -0.015,0.034 -0.034,0.034l-0.545 0c-0.018,0 -0.034,-0.015 -0.034,-0.034l0 -0.136c0,-0.019 0.016,-0.034 0.034,-0.034zm0 -0.239l0.545 0c0.019,0 0.034,0.016 0.034,0.034l0 0.136c0,0.019 -0.015,0.035 -0.034,0.035l-0.545 0c-0.018,0 -0.034,-0.016 -0.034,-0.035l0 -0.136c0,-0.018 0.016,-0.034 0.034,-0.034zm0 -0.238l0.545 0c0.019,0 0.034,0.015 0.034,0.034l0 0.136c0,0.019 -0.015,0.034 -0.034,0.034l-0.545 0c-0.018,0 -0.034,-0.015 -0.034,-0.034l0 -0.136c0,-0.019 0.016,-0.034 0.034,-0.034zm0 -0.239l0.545 0c0.019,0 0.034,0.016 0.034,0.035l0 0.136c0,0.018 -0.015,0.034 -0.034,0.034l-0.545 0c-0.018,0 -0.034,-0.016 -0.034,-0.034l0 -0.136c0,-0.019 0.016,-0.035 0.034,-0.035zm0 -0.238l0.545 0c0.019,0 0.034,0.015 0.034,0.034l0 0.136c0,0.019 -0.015,0.034 -0.034,0.034l-0.545 0c-0.018,0 -0.034,-0.015 -0.034,-0.034l0 -0.136c0,-0.019 0.016,-0.034 0.034,-0.034z"/>
  <g>
   <path class="fil2" d="M3.167 2.588l0 -1.635 0.068 0 0 1.635 0 0 -0.068 0zm-0.136 0.204l0 -0.068 0 0 0.007 0 0.007 -0.001 0.006 0 0.007 -0.002 0.007 -0.001 0.006 -0.002 0.006 -0.002 0.007 -0.003 0.006 -0.002 0.005 -0.003 0.006 -0.004 0.006 -0.003 0.005 -0.004 0.005 -0.004 0.005 -0.004 0.005 -0.005 0.004 -0.005 0.005 -0.005 0.004 -0.005 0.004 -0.005 0.003 -0.006 0.003 -0.005 0.003 -0.006 0.003 -0.006 0.003 -0.006 0.002 -0.007 0.002 -0.006 0.001 -0.007 0.001 -0.006 0.001 -0.007 0.001 -0.007 0 -0.007 0.068 0 0 0.011 -0.001 0.01 -0.001 0.01 -0.002 0.01 -0.003 0.01 -0.002 0.01 -0.004 0.009 -0.003 0.009 -0.004 0.01 -0.005 0.008 -0.005 0.009 -0.005 0.008 -0.006 0.008 -0.006 0.008 -0.006 0.007 -0.007 0.007 -0.007 0.007 -0.007 0.007 -0.008 0.006 -0.008 0.005 -0.008 0.006 -0.009 0.005 -0.009 0.004 -0.009 0.004 -0.009 0.004 -0.01 0.003 -0.009 0.003 -0.01 0.002 -0.01 0.002 -0.01 0.001 -0.011 0.001 -0.01 0 0 0zm-0.954 -0.068l0.954 0 0 0.068 -0.954 0 0 0 0 -0.068zm-0.204 -0.136l0.068 0 0 0 0 0.007 0.001 0.007 0.001 0.007 0.001 0.006 0.001 0.007 0.002 0.006 0.002 0.007 0.003 0.006 0.002 0.006 0.003 0.006 0.004 0.005 0.003 0.006 0.004 0.005 0.004 0.005 0.004 0.005 0.005 0.005 0.005 0.005 0.005 0.004 0.005 0.004 0.005 0.004 0.006 0.003 0.005 0.004 0.006 0.003 0.006 0.002 0.006 0.003 0.007 0.002 0.006 0.002 0.007 0.001 0.006 0.002 0.007 0 0.007 0.001 0.007 0 0 0.068 -0.01 0 -0.011 -0.001 -0.01 -0.001 -0.01 -0.002 -0.01 -0.002 -0.01 -0.003 -0.009 -0.003 -0.009 -0.004 -0.009 -0.004 -0.009 -0.004 -0.009 -0.005 -0.008 -0.006 -0.008 -0.005 -0.008 -0.006 -0.007 -0.007 -0.007 -0.007 -0.007 -0.007 -0.006 -0.007 -0.006 -0.008 -0.006 -0.008 -0.005 -0.008 -0.005 -0.009 -0.005 -0.008 -0.004 -0.01 -0.004 -0.009 -0.003 -0.009 -0.003 -0.01 -0.002 -0.01 -0.002 -0.01 -0.001 -0.01 -0.001 -0.01 0 -0.011 0 0zm0.068 -1.635l0 1.635 -0.068 0 0 -1.635 0 0 0.068 0zm0.136 -0.204l0 0.068 0 0 -0.007 0 -0.007 0.001 -0.007 0.001 -0.006 0.001 -0.007 0.002 -0.006 0.001 -0.007 0.003 -0.006 0.002 -0.006 0.003 -0.006 0.003 -0.005 0.003 -0.006 0.004 -0.005 0.003 -0.005 0.004 -0.005 0.005 -0.005 0.004 -0.005 0.005 -0.004 0.005 -0.004 0.005 -0.004 0.005 -0.003 0.006 -0.004 0.006 -0.003 0.006 -0.002 0.006 -0.003 0.006 -0.002 0.006 -0.002 0.006 -0.001 0.007 -0.001 0.007 -0.001 0.006 -0.001 0.007 0 0.007 -0.068 0 0 -0.01 0.001 -0.01 0.001 -0.011 0.002 -0.01 0.002 -0.01 0.003 -0.009 0.003 -0.01 0.004 -0.009 0.004 -0.009 0.005 -0.009 0.005 -0.008 0.005 -0.009 0.006 -0.008 0.006 -0.007 0.006 -0.008 0.007 -0.007 0.007 -0.007 0.007 -0.006 0.008 -0.006 0.008 -0.006 0.008 -0.005 0.009 -0.005 0.009 -0.005 0.009 -0.004 0.009 -0.003 0.009 -0.004 0.01 -0.002 0.01 -0.003 0.01 -0.001 0.01 -0.002 0.011 -0.001 0.01 0 0 0zm0.954 0.068l-0.954 0 0 -0.068 0.954 0 0 0 0 0.068zm0.204 0.136l-0.068 0 0 0 0 -0.007 -0.001 -0.007 -0.001 -0.006 -0.001 -0.007 -0.001 -0.007 -0.002 -0.006 -0.002 -0.006 -0.003 -0.006 -0.003 -0.006 -0.003 -0.006 -0.003 -0.006 -0.003 -0.006 -0.004 -0.005 -0.004 -0.005 -0.005 -0.005 -0.004 -0.005 -0.005 -0.004 -0.005 -0.005 -0.005 -0.004 -0.005 -0.003 -0.006 -0.004 -0.006 -0.003 -0.005 -0.003 -0.006 -0.003 -0.007 -0.002 -0.006 -0.003 -0.006 -0.001 -0.007 -0.002 -0.007 -0.001 -0.006 -0.001 -0.007 -0.001 -0.007 0 0 -0.068 0.01 0 0.011 0.001 0.01 0.002 0.01 0.001 0.01 0.003 0.009 0.002 0.01 0.004 0.009 0.003 0.009 0.004 0.009 0.005 0.009 0.005 0.008 0.005 0.008 0.006 0.008 0.006 0.007 0.006 0.007 0.007 0.007 0.007 0.006 0.008 0.006 0.007 0.006 0.008 0.005 0.009 0.005 0.008 0.005 0.009 0.004 0.009 0.003 0.009 0.004 0.01 0.002 0.009 0.003 0.01 0.002 0.01 0.001 0.011 0.001 0.01 0 0.01 0 0z"/>
  </g>
  <rect class="fil1" transform="matrix(6.44954E-15 0.222452 -0.243521 5.89154E-15 3.03064 0.953468)" width="2.449" height="3.915" rx="0.311" ry="0.311"/>
  <g>
   <path class="fil2" d="M2.267 1.711c0.017,0 0.031,0.015 0.031,0.034 0,0.019 -0.014,0.034 -0.031,0.034l0 -0.068zm-0.137 0l0.137 0 0 0.068 -0.137 0 0 -0.068zm0 0.068c-0.017,0 -0.031,-0.015 -0.031,-0.034 0,-0.019 0.014,-0.034 0.031,-0.034l0 0.068zm0.852 0.655c0.017,0 0.031,0.015 0.031,0.034 0,0.019 -0.014,0.034 -0.031,0.034l0 -0.068zm-0.145 0l0.145 0 0 0.068 -0.145 0 0 -0.068zm0 0.068c-0.017,0 -0.031,-0.015 -0.031,-0.034 0,-0.019 0.014,-0.034 0.031,-0.034l0 0.068zm-0.211 -0.068c0.018,0 0.032,0.015 0.032,0.034 0,0.019 -0.014,0.034 -0.032,0.034l0 -0.068zm-0.144 0l0.144 0 0 0.068 -0.144 0 0 -0.068zm0 0.068c-0.018,0 -0.032,-0.015 -0.032,-0.034 0,-0.019 0.014,-0.034 0.032,-0.034l0 0.068zm-0.211 -0.068c0.017,0 0.031,0.015 0.031,0.034 0,0.019 -0.014,0.034 -0.031,0.034l0 -0.068zm-0.145 0l0.145 0 0 0.068 -0.145 0 0 -0.068zm0 0.068c-0.017,0 -0.031,-0.015 -0.031,-0.034 0,-0.019 0.014,-0.034 0.031,-0.034l0 0.068zm0.856 -0.303c0.017,0 0.031,0.015 0.031,0.034 0,0.019 -0.014,0.034 -0.031,0.034l0 -0.068zm-0.145 0l0.145 0 0 0.068 -0.145 0 0 -0.068zm0 0.068c-0.017,0 -0.031,-0.015 -0.031,-0.034 0,-0.019 0.014,-0.034 0.031,-0.034l0 0.068zm-0.211 -0.068c0.018,0 0.032,0.015 0.032,0.034 0,0.019 -0.014,0.034 -0.032,0.034l0 -0.068zm-0.144 0l0.144 0 0 0.068 -0.144 0 0 -0.068zm0 0.068c-0.018,0 -0.032,-0.015 -0.032,-0.034 0,-0.019 0.014,-0.034 0.032,-0.034l0 0.068zm-0.211 -0.068c0.017,0 0.031,0.015 0.031,0.034 0,0.019 -0.014,0.034 -0.031,0.034l0 -0.068zm-0.145 0l0.145 0 0 0.068 -0.145 0 0 -0.068zm0 0.068c-0.017,0 -0.031,-0.015 -0.031,-0.034 0,-0.019 0.014,-0.034 0.031,-0.034l0 0.068zm0.856 -0.305c0.017,0 0.031,0.015 0.031,0.034 0,0.019 -0.014,0.034 -0.031,0.034l0 -0.068zm-0.145 0l0.145 0 0 0.068 -0.145 0 0 -0.068zm0 0.068c-0.017,0 -0.031,-0.015 -0.031,-0.034 0,-0.019 0.014,-0.034 0.031,-0.034l0 0.068zm-0.211 -0.068c0.018,0 0.032,0.015 0.032,0.034 0,0.019 -0.014,0.034 -0.032,0.034l0 -0.068zm-0.144 0l0.144 0 0 0.068 -0.144 0 0 -0.068zm0 0.068c-0.018,0 -0.032,-0.015 -0.032,-0.034 0,-0.019 0.014,-0.034 0.032,-0.034l0 0.068zm-0.211 -0.068c0.017,0 0.031,0.015 0.031,0.034 0,0.019 -0.014,0.034 -0.031,0.034l0 -0.068zm-0.145 0l0.145 0 0 0.068 -0.145 0 0 -0.068zm0 0.068c-0.017,0 -0.031,-0.015 -0.031,-0.034 0,-0.019 0.014,-0.034 0.031,-0.034l0 0.068zm0.851 -0.319c0.018,0 0.032,0.015 0.032,0.034 0,0.019 -0.014,0.034 -0.032,0.034l0 -0.068zm-0.136 0l0.136 0 0 0.068 -0.136 0 0 -0.068zm0 0.068c-0.017,0 -0.031,-0.015 -0.031,-0.034 0,-0.019 0.014,-0.034 0.031,-0.034l0 0.068zm-0.219 -0.068c0.017,0 0.031,0.015 0.031,0.034 0,0.019 -0.014,0.034 -0.031,0.034l0 -0.068zm-0.136 0l0.136 0 0 0.068 -0.136 0 0 -0.068zm0 0.068c-0.017,0 -0.031,-0.015 -0.031,-0.034 0,-0.019 0.014,-0.034 0.031,-0.034l0 0.068z"/>
  </g>
 </g>
</svg>
