<?xml version="1.0" encoding="UTF-8"?>
<!DOCTYPE svg PUBLIC "-//W3C//DTD SVG 1.1//EN" "http://www.w3.org/Graphics/SVG/1.1/DTD/svg11.dtd">
<!-- Creator: CorelDRAW -->
<svg xmlns="http://www.w3.org/2000/svg" xml:space="preserve" width="120px" height="96px" version="1.1" style="shape-rendering:geometricPrecision; text-rendering:geometricPrecision; image-rendering:optimizeQuality; fill-rule:evenodd; clip-rule:evenodd"
viewBox="0 0 4.086 3.269"
 xmlns:xlink="http://www.w3.org/1999/xlink"
 xmlns:xodm="http://www.corel.com/coreldraw/odm/2003">
 <defs>
  <style type="text/css">
   <![CDATA[
    .str0 {stroke:#1A1A1A;stroke-width:0.068;stroke-miterlimit:2.61313}
    .str5 {stroke:#1A1A1A;stroke-width:0.068;stroke-miterlimit:2.61313}
    .str2 {stroke:#1A1A1A;stroke-width:0.068;stroke-miterlimit:2.61313}
    .str3 {stroke:#1A1A1A;stroke-width:0.066;stroke-miterlimit:2.61313}
    .str4 {stroke:#1A1A1A;stroke-width:0.068;stroke-linecap:round;stroke-miterlimit:2.61313}
    .str1 {stroke:#1A1A1A;stroke-width:0.068;stroke-linecap:round;stroke-miterlimit:2.61313}
    .fil0 {fill:none}
    .fil2 {fill:#FCC730}
    .fil1 {fill:#1A1A1A;fill-rule:nonzero}
   ]]>
  </style>
 </defs>
 <g id="Layer_x0020_1">
  <metadata id="CorelCorpID_0Corel-Layer"/>
  <rect class="fil0" width="4.086" height="3.269"/>
  <g>
   <path class="fil1" d="M1.191 0.647l0 0.769 -0.067 0 0 -0.769 0 0 0.067 0zm0.137 -0.204l0 0.068 0 0 -0.007 0 -0.007 0.001 -0.007 0 -0.006 0.002 -0.007 0.001 -0.006 0.002 -0.007 0.002 -0.006 0.003 -0.006 0.002 -0.006 0.003 -0.006 0.004 -0.005 0.003 -0.006 0.004 -0.005 0.004 -0.005 0.004 -0.004 0.005 -0.005 0.005 -0.004 0.005 -0.004 0.005 -0.004 0.005 -0.004 0.006 -0.003 0.005 -0.003 0.006 -0.003 0.006 -0.002 0.006 -0.002 0.007 -0.002 0.006 -0.002 0.007 -0.001 0.006 -0.001 0.007 0 0.007 -0.001 0.007 -0.067 0 0 -0.01 0.001 -0.011 0.001 -0.01 0.002 -0.01 0.003 -0.01 0.002 -0.01 0.004 -0.009 0.003 -0.01 0.004 -0.009 0.005 -0.008 0.005 -0.009 0.005 -0.008 0.006 -0.008 0.006 -0.008 0.006 -0.007 0.007 -0.007 0.007 -0.007 0.008 -0.007 0.007 -0.006 0.008 -0.005 0.009 -0.006 0.008 -0.005 0.009 -0.004 0.009 -0.004 0.009 -0.004 0.01 -0.003 0.009 -0.003 0.01 -0.002 0.01 -0.002 0.01 -0.001 0.011 -0.001 0.01 0 0 0zm1.09 0.068l-1.09 0 0 -0.068 1.09 0 0 0 0 0.068zm0.204 0.136l-0.068 0 0 0 0 -0.007 0 -0.007 -0.001 -0.007 -0.002 -0.006 -0.001 -0.007 -0.002 -0.006 -0.002 -0.007 -0.002 -0.006 -0.003 -0.006 -0.003 -0.006 -0.003 -0.005 -0.004 -0.006 -0.004 -0.005 -0.004 -0.005 -0.004 -0.005 -0.005 -0.005 -0.005 -0.005 -0.004 -0.004 -0.006 -0.004 -0.005 -0.004 -0.006 -0.003 -0.005 -0.004 -0.006 -0.003 -0.006 -0.002 -0.006 -0.003 -0.007 -0.002 -0.006 -0.002 -0.007 -0.001 -0.007 -0.002 -0.006 0 -0.007 -0.001 -0.007 0 0 -0.068 0.01 0 0.01 0.001 0.011 0.001 0.01 0.002 0.01 0.002 0.009 0.003 0.01 0.003 0.009 0.004 0.009 0.004 0.009 0.004 0.008 0.005 0.009 0.006 0.008 0.005 0.007 0.006 0.008 0.007 0.007 0.007 0.006 0.007 0.007 0.007 0.006 0.008 0.006 0.008 0.005 0.008 0.005 0.009 0.004 0.008 0.005 0.009 0.003 0.01 0.003 0.009 0.003 0.01 0.003 0.01 0.001 0.01 0.002 0.01 0 0.011 0.001 0.01 0 0zm-0.068 1.975l0 -1.975 0.068 0 0 1.975 0 0 -0.068 0zm-0.136 0.204l0 -0.068 0 0 0.007 0 0.007 -0.001 0.006 0 0.007 -0.002 0.007 -0.001 0.006 -0.002 0.007 -0.002 0.006 -0.003 0.006 -0.002 0.006 -0.003 0.005 -0.004 0.006 -0.003 0.005 -0.004 0.006 -0.004 0.004 -0.004 0.005 -0.005 0.005 -0.005 0.004 -0.005 0.004 -0.005 0.004 -0.005 0.004 -0.006 0.003 -0.005 0.003 -0.006 0.003 -0.006 0.002 -0.006 0.002 -0.007 0.002 -0.006 0.001 -0.007 0.002 -0.006 0.001 -0.007 0 -0.007 0 -0.007 0.068 0 -0.001 0.01 0 0.011 -0.002 0.01 -0.001 0.01 -0.003 0.01 -0.003 0.01 -0.003 0.009 -0.003 0.01 -0.005 0.009 -0.004 0.008 -0.005 0.009 -0.005 0.008 -0.006 0.008 -0.006 0.008 -0.007 0.007 -0.006 0.007 -0.007 0.007 -0.008 0.007 -0.007 0.006 -0.008 0.005 -0.009 0.006 -0.008 0.005 -0.009 0.004 -0.009 0.004 -0.009 0.004 -0.01 0.003 -0.009 0.003 -0.01 0.002 -0.01 0.002 -0.011 0.001 -0.01 0.001 -0.01 0 0 0zm-1.09 -0.068l1.09 0 0 0.068 -1.09 0 0 0 0 -0.068zm-0.204 -0.136l0.067 0 0 0 0.001 0.007 0 0.007 0.001 0.007 0.001 0.006 0.002 0.007 0.002 0.006 0.002 0.007 0.002 0.006 0.003 0.006 0.003 0.006 0.003 0.005 0.004 0.006 0.004 0.005 0.004 0.005 0.004 0.005 0.005 0.005 0.004 0.005 0.005 0.004 0.005 0.004 0.006 0.004 0.005 0.003 0.006 0.004 0.006 0.003 0.006 0.002 0.006 0.003 0.007 0.002 0.006 0.002 0.007 0.001 0.006 0.002 0.007 0 0.007 0.001 0.007 0 0 0.068 -0.01 0 -0.011 -0.001 -0.01 -0.001 -0.01 -0.002 -0.01 -0.002 -0.009 -0.003 -0.01 -0.003 -0.009 -0.004 -0.009 -0.004 -0.009 -0.004 -0.008 -0.005 -0.009 -0.006 -0.008 -0.005 -0.007 -0.006 -0.008 -0.007 -0.007 -0.007 -0.007 -0.007 -0.006 -0.007 -0.006 -0.008 -0.006 -0.008 -0.005 -0.008 -0.005 -0.009 -0.005 -0.008 -0.004 -0.009 -0.003 -0.01 -0.004 -0.009 -0.002 -0.01 -0.003 -0.01 -0.002 -0.01 -0.001 -0.01 -0.001 -0.011 0 -0.01 0 0zm0.067 -0.224l0 0.224 -0.067 0 0 -0.224 0.067 0z"/>
  </g>
  <path class="fil2" d="M1.464 0.613l0.818 0c0.074,0 0.136,0.061 0.136,0.136l0 1.567c0,0.074 -0.062,0.136 -0.136,0.136l-0.818 0c-0.075,0 -0.136,-0.062 -0.136,-0.136l0 -0.081c0.064,-0.087 0.102,-0.213 0.102,-0.328 0,-0.115 -0.016,-0.207 -0.102,-0.329l0 -0.829c0,-0.075 0.061,-0.136 0.136,-0.136z"/>
  <circle class="fil0 str0" cx="0.851" cy="1.907" r="0.579"/>
  <path class="fil0 str1" d="M0.585 2.238c0.041,-0.111 0.147,-0.186 0.266,-0.186 0.119,0 0.226,0.075 0.266,0.186"/>
  <circle class="fil0 str2" cx="0.851" cy="1.743" r="0.188"/>
  <circle class="fil0 str3" cx="3.371" cy="1.158" r="0.477"/>
  <path class="fil0 str4" d="M3.147 1.43c0.034,-0.094 0.124,-0.157 0.224,-0.157 0.1,0 0.19,0.063 0.224,0.157"/>
  <circle class="fil0 str5" cx="3.371" cy="1.013" r="0.158"/>
  <g>
   <path class="fil1" d="M1.669 2.645c-0.018,0 -0.033,-0.015 -0.033,-0.034 0,-0.019 0.015,-0.034 0.033,-0.034l0 0.068zm0.408 0l-0.408 0 0 -0.068 0.408 0 0 0.068zm0 -0.068c0.018,0 0.032,0.015 0.032,0.034 0,0.019 -0.014,0.034 -0.032,0.034l0 -0.068z"/>
  </g>
  <path class="fil1" d="M3.052 2.388c-0.041,0.015 -0.023,0.076 0.02,0.065 0.022,-0.006 0.048,-0.017 0.069,-0.027 0.038,-0.02 0.014,-0.077 -0.026,-0.063 -0.022,0.009 -0.04,0.018 -0.063,0.025zm0.207 -0.14c-0.008,0.01 -0.01,0.024 -0.005,0.036 0.01,0.023 0.041,0.027 0.057,0.008 0.016,-0.019 0.03,-0.039 0.043,-0.059 0.008,-0.013 0.007,-0.029 -0.003,-0.041 -0.015,-0.017 -0.043,-0.014 -0.055,0.005 -0.011,0.018 -0.023,0.035 -0.037,0.051zm0.102 -0.228c-0.002,0.012 0.003,0.024 0.013,0.031 0.021,0.016 0.051,0.004 0.054,-0.022 0.004,-0.024 0.005,-0.048 0.005,-0.073 0,-0.017 -0.013,-0.032 -0.03,-0.033 -0.02,-0.003 -0.038,0.013 -0.038,0.033 0,0.022 -0.001,0.042 -0.004,0.064z"/>
 </g>
</svg>
