<?xml version="1.0" encoding="UTF-8"?>
<!DOCTYPE svg PUBLIC "-//W3C//DTD SVG 1.1//EN" "http://www.w3.org/Graphics/SVG/1.1/DTD/svg11.dtd">
<!-- Creator: CorelDRAW -->
<svg xmlns="http://www.w3.org/2000/svg" xml:space="preserve" width="120px" height="96px" version="1.1" style="shape-rendering:geometricPrecision; text-rendering:geometricPrecision; image-rendering:optimizeQuality; fill-rule:evenodd; clip-rule:evenodd"
viewBox="0 0 4.086 3.269"
 xmlns:xlink="http://www.w3.org/1999/xlink"
 xmlns:xodm="http://www.corel.com/coreldraw/odm/2003">
 <defs>
  <style type="text/css">
   <![CDATA[
    .str1 {stroke:#1A1A1A;stroke-width:0.068;stroke-linecap:round;stroke-linejoin:round;stroke-miterlimit:2.61313}
    .str0 {stroke:#1A1A1A;stroke-width:0.068;stroke-linecap:round;stroke-linejoin:round;stroke-miterlimit:2.61313}
    .fil0 {fill:none}
    .fil1 {fill:#FCC730}
    .fil2 {fill:#1A1A1A;fill-rule:nonzero}
   ]]>
  </style>
 </defs>
 <g id="Layer_x0020_1">
  <metadata id="CorelCorpID_0Corel-Layer"/>
  <rect class="fil0" width="4.086" height="3.269"/>
  <path class="fil1" d="M3.78 0.458l0 0.824c0,0.065 -0.04,0.114 -0.102,0.114l-0.137 0 0 0.239 -0.3 -0.239 -0.721 0 0 -0.203c0,-0.076 -0.062,-0.137 -0.138,-0.137l-0.237 0 0 -0.598c0,-0.064 0.051,-0.117 0.114,-0.117l1.407 0c0.063,0 0.114,0.053 0.114,0.117zm-1.133 0.261c-0.018,0 -0.033,-0.015 -0.033,-0.034 0,-0.019 0.015,-0.034 0.033,-0.034l0.282 0 0 -0.103c0,-0.019 0.015,-0.034 0.034,-0.034 0.018,0 0.033,0.015 0.033,0.034l0 0.103 0.282 0c0.018,0 0.033,0.015 0.033,0.034 0,0.019 -0.015,0.034 -0.033,0.034l-0.158 0c-0.005,0.055 -0.027,0.169 -0.111,0.271 0.042,0.037 0.095,0.07 0.165,0.094 0.017,0.006 0.026,0.025 0.021,0.043 -0.006,0.017 -0.025,0.027 -0.043,0.021 -0.08,-0.028 -0.142,-0.066 -0.189,-0.11 -0.048,0.044 -0.11,0.082 -0.19,0.11 -0.018,0.006 -0.037,-0.004 -0.042,-0.021 -0.006,-0.018 0.003,-0.037 0.021,-0.043 0.069,-0.024 0.123,-0.057 0.164,-0.094 -0.084,-0.102 -0.106,-0.216 -0.111,-0.271l-0.158 0zm0.406 0l-0.181 0c0.005,0.048 0.024,0.138 0.091,0.221 0.066,-0.083 0.085,-0.173 0.09,-0.221z"/>
  <g>
   <path class="fil2" d="M2.486 2.144l0 -0.951 0.068 0 0 0.951 0 0 -0.068 0zm-0.104 0.172l0 -0.069 0 0 0.006 0 0.005 0 0.005 -0.001 0.005 -0.001 0.005 -0.001 0.005 -0.001 0.005 -0.002 0.004 -0.002 0.005 -0.002 0.004 -0.002 0.005 -0.002 0.004 -0.003 0.004 -0.003 0.004 -0.003 0.004 -0.003 0.003 -0.004 0.004 -0.003 0.003 -0.004 0.003 -0.004 0.003 -0.004 0.003 -0.004 0.002 -0.005 0.003 -0.004 0.002 -0.005 0.001 -0.004 0.002 -0.005 0.001 -0.005 0.002 -0.005 0.001 -0.005 0 -0.005 0.001 -0.005 0 -0.006 0.068 0 0 0.009 -0.001 0.009 -0.001 0.008 -0.002 0.009 -0.001 0.008 -0.003 0.008 -0.002 0.008 -0.004 0.008 -0.003 0.008 -0.004 0.007 -0.004 0.007 -0.004 0.007 -0.005 0.007 -0.005 0.006 -0.006 0.006 -0.005 0.006 -0.006 0.006 -0.007 0.005 -0.006 0.005 -0.007 0.005 -0.007 0.005 -0.007 0.004 -0.007 0.004 -0.008 0.003 -0.008 0.003 -0.008 0.003 -0.008 0.002 -0.008 0.002 -0.009 0.002 -0.008 0.001 -0.009 0 -0.009 0.001 0 0zm-1.044 -0.069l1.044 0 0 0.069 -1.044 0 -0.021 -0.061 0.021 -0.008zm-0.021 0.008l0.009 -0.008 0.012 0 -0.021 0.008zm-0.418 0.341l0.418 -0.341 0.043 0.053 -0.417 0.34 -0.056 -0.026 0.012 -0.026zm0.044 0.052l-0.056 0.046 0 -0.072 0.056 0.026zm0.012 -0.366l0 0.34 -0.068 0 0 -0.34 0.034 -0.035 0.034 0.035zm-0.034 -0.035l0.034 0 0 0.035 -0.034 -0.035zm-0.239 0l0.239 0 0 0.069 -0.239 0 0 0 0 -0.069zm-0.171 -0.103l0.068 0 0 0 0 0.006 0.001 0.005 0 0.005 0.001 0.005 0.001 0.005 0.002 0.005 0.001 0.005 0.002 0.004 0.002 0.005 0.002 0.004 0.003 0.005 0.003 0.004 0.003 0.004 0.003 0.004 0.003 0.004 0.003 0.003 0.004 0.004 0.004 0.003 0.004 0.003 0.004 0.003 0.004 0.003 0.004 0.002 0.005 0.002 0.004 0.002 0.005 0.002 0.005 0.002 0.005 0.001 0.005 0.001 0.005 0.001 0.005 0.001 0.005 0 0.005 0 0 0.069 -0.009 -0.001 -0.008 0 -0.009 -0.001 -0.008 -0.002 -0.009 -0.002 -0.008 -0.002 -0.008 -0.003 -0.007 -0.003 -0.008 -0.003 -0.007 -0.004 -0.008 -0.004 -0.007 -0.005 -0.006 -0.005 -0.007 -0.005 -0.006 -0.005 -0.006 -0.006 -0.006 -0.006 -0.005 -0.006 -0.005 -0.006 -0.005 -0.007 -0.004 -0.007 -0.004 -0.007 -0.004 -0.007 -0.004 -0.008 -0.003 -0.008 -0.003 -0.008 -0.002 -0.008 -0.002 -0.008 -0.001 -0.009 -0.001 -0.008 -0.001 -0.009 0 -0.009 0 0zm0.068 -0.951l0 0.951 -0.068 0 0 -0.951 0 0 0.068 0zm0.103 -0.171l0 0.068 0 0 -0.005 0 -0.005 0 -0.005 0.001 -0.005 0.001 -0.005 0.001 -0.005 0.001 -0.005 0.002 -0.005 0.002 -0.004 0.002 -0.005 0.002 -0.004 0.003 -0.004 0.002 -0.004 0.003 -0.004 0.003 -0.004 0.004 -0.004 0.003 -0.003 0.004 -0.003 0.003 -0.003 0.004 -0.003 0.004 -0.003 0.004 -0.003 0.005 -0.002 0.004 -0.002 0.005 -0.002 0.004 -0.001 0.005 -0.002 0.005 -0.001 0.005 -0.001 0.005 0 0.005 -0.001 0.005 0 0.006 -0.068 0 0 -0.009 0.001 -0.009 0.001 -0.008 0.001 -0.009 0.002 -0.008 0.002 -0.008 0.003 -0.008 0.003 -0.008 0.004 -0.007 0.004 -0.008 0.004 -0.007 0.004 -0.007 0.005 -0.007 0.005 -0.006 0.005 -0.006 0.006 -0.006 0.006 -0.006 0.006 -0.005 0.007 -0.005 0.006 -0.005 0.007 -0.005 0.008 -0.004 0.007 -0.003 0.008 -0.004 0.007 -0.003 0.008 -0.003 0.008 -0.002 0.009 -0.002 0.008 -0.001 0.009 -0.002 0.008 0 0.009 0 0 0zm1.7 0.068l-1.7 0 0 -0.068 1.7 0 0 0 0 0.068zm0.172 0.103l-0.068 0 0 0 0 -0.006 -0.001 -0.005 0 -0.005 -0.001 -0.005 -0.002 -0.005 -0.001 -0.005 -0.002 -0.005 -0.001 -0.004 -0.002 -0.005 -0.003 -0.004 -0.002 -0.004 -0.003 -0.005 -0.003 -0.004 -0.003 -0.004 -0.003 -0.003 -0.004 -0.004 -0.003 -0.003 -0.004 -0.004 -0.004 -0.003 -0.004 -0.003 -0.004 -0.002 -0.005 -0.003 -0.004 -0.002 -0.005 -0.002 -0.004 -0.002 -0.005 -0.002 -0.005 -0.001 -0.005 -0.001 -0.005 -0.001 -0.005 -0.001 -0.005 0 -0.006 0 0 -0.068 0.009 0 0.009 0 0.008 0.002 0.009 0.001 0.008 0.002 0.008 0.002 0.008 0.003 0.008 0.003 0.008 0.004 0.007 0.003 0.007 0.004 0.007 0.005 0.007 0.005 0.006 0.005 0.007 0.005 0.006 0.006 0.005 0.006 0.006 0.006 0.005 0.006 0.005 0.007 0.004 0.007 0.004 0.007 0.004 0.008 0.003 0.007 0.004 0.008 0.002 0.008 0.003 0.008 0.001 0.008 0.002 0.009 0.001 0.008 0.001 0.009 0 0.009 0 0z"/>
  </g>
  <polyline class="fil0 str0" points="1.257,1.964 1.532,1.385 1.807,1.964 "/>
  <line class="fil0 str1" x1="1.371" y1="1.726" x2="1.694" y2= "1.726" />
 </g>
</svg>
