<svg width="150" height="24" viewBox="0 0 150 24" fill="none" xmlns="http://www.w3.org/2000/svg">
<g clip-path="url(#clip0_120_532)">
<path d="M100.223 4.68295C96.1867 4.68295 95.759 6.10746 95.2919 6.73346C94.3677 5.44204 92.9076 4.68295 91.1821 4.68295C89.4123 4.68295 88.2767 4.77661 87.264 5.96452V5.00827H83.9407V19.1203H87.264V10.4697C87.264 8.74946 88.5422 7.52211 90.3414 7.52211C91.9736 7.52211 93.0895 8.83325 93.0895 10.6866V19.1203H96.3292V10.4697C96.3292 8.74946 97.5828 7.52211 99.4067 7.52211C101.014 7.52211 102.13 8.83325 102.13 10.6866V19.1203H105.37V10.1395C105.37 6.94541 103.168 4.67802 100.228 4.67802L100.223 4.68295ZM9.57498 16.5029C8.09032 16.5029 7.00878 15.8276 6.33036 14.8517L13.7291 11.9632L16.1478 11.0415C15.7643 7.08342 12.8098 4.68295 9.40783 4.68295C5.40613 4.68295 2.25 7.79321 2.25 12.0273C2.25 16.3649 5.57328 19.4505 9.59956 19.4505C11.6397 19.4505 14.0929 18.5781 15.317 17.2669L13.2227 15.0833C12.4312 15.9016 10.8827 16.5029 9.57498 16.5029V16.5029ZM5.49462 12.3033C5.37172 10.0113 6.70889 7.63055 9.54548 7.63055C11.0105 7.63055 12.0674 8.32556 12.7606 9.35081L5.49462 12.2984V12.3033ZM25.9603 19.4505C28.1922 19.4505 30.0702 18.5239 31.4319 17.0747L29.2 15.1376C28.4085 16.0396 27.2139 16.6114 25.9898 16.6114C23.6743 16.6114 21.7423 14.5362 21.7423 12.052C21.7423 9.59726 23.6743 7.52211 25.9898 7.52211C27.1893 7.52211 28.3594 8.09389 29.1214 8.94169L31.3533 6.97498C30.021 5.58498 28.1431 4.68295 26.0193 4.68295C21.9094 4.68295 18.4534 8.03967 18.4534 12.052C18.4534 16.0642 21.9094 19.4505 25.9652 19.4505H25.9603ZM40.5513 19.4505C44.6365 19.4505 48.0926 16.0642 48.0926 12.052C48.0926 8.03967 44.6365 4.68295 40.5513 4.68295C36.466 4.68295 33.01 8.03967 33.01 12.052C33.01 16.0642 36.466 19.4505 40.5513 19.4505ZM40.5513 16.6114C38.2112 16.6114 36.2497 14.5362 36.2497 12.052C36.2497 9.59726 38.2112 7.52211 40.5513 7.52211C42.8667 7.52211 44.8233 9.59726 44.8233 12.052C44.8233 14.5362 42.8618 16.6114 40.5513 16.6114ZM58.6523 4.68295C56.799 4.68295 55.4323 4.91462 54.2967 6.04831V5.00827H50.9734V19.1203H54.2967V10.1937C54.513 8.69031 55.9583 7.51718 57.6986 7.51718C59.4389 7.51718 60.6679 8.88254 60.6679 10.7901V19.1154H63.8781V10.1345C63.8781 6.94048 61.7298 4.6731 58.6523 4.6731V4.68295ZM76.9992 5.0132V13.9398C76.7829 15.4382 75.3375 16.6163 73.5972 16.6163C71.8569 16.6163 70.6279 15.2509 70.6279 13.3434V5.01813H67.4177V13.9989C67.4177 17.193 69.566 19.4604 72.6435 19.4604C74.4969 19.4604 76.0209 19.1055 76.9992 18.0507V19.1301H80.3224V5.01813H76.9992V5.0132Z" fill="#333333"/>
<path fill-rule="evenodd" clip-rule="evenodd" d="M140.176 4.50046C138.16 4.50046 136.336 5.29897 134.989 6.59533C135.579 7.36426 136.046 8.23671 136.361 9.17324C137.226 8.00012 138.613 7.24104 140.176 7.24104C142.796 7.24104 144.92 9.37041 144.92 11.9976C144.92 14.6248 142.796 16.7542 140.176 16.7542C138.613 16.7542 137.221 15.9951 136.361 14.822C136.046 15.7634 135.579 16.631 134.989 17.3999C136.336 18.6963 138.16 19.4948 140.176 19.4948C144.305 19.4948 147.658 16.1381 147.658 11.9927C147.658 7.85225 144.31 4.4906 140.176 4.4906V4.50046ZM115.728 4.50046C111.599 4.50046 108.246 7.85717 108.246 12.0025C108.246 16.143 111.594 19.5046 115.728 19.5046C119.858 19.5046 123.21 16.1479 123.21 12.0025C123.21 7.8621 119.863 4.50046 115.728 4.50046ZM115.728 7.24597C113.108 7.24597 110.984 9.37534 110.984 12.0025C110.984 14.6298 113.108 16.7591 115.728 16.7591C118.348 16.7591 120.472 14.6298 120.472 12.0025C120.472 9.37534 118.348 7.24597 115.728 7.24597ZM127.95 4.50046C125.934 4.50046 124.11 5.29897 122.763 6.59533C123.353 7.36426 123.82 8.23671 124.135 9.17324C125 8.00012 126.386 7.24104 127.95 7.24104C130.57 7.24104 132.694 9.37041 132.694 11.9976C132.694 14.6248 130.57 16.7542 127.95 16.7542C126.386 16.7542 124.995 15.9951 124.135 14.822C123.82 15.7634 123.353 16.631 122.763 17.3999C124.11 18.6963 125.934 19.4948 127.95 19.4948C132.079 19.4948 135.432 16.1381 135.432 11.9927C135.432 7.85225 132.084 4.4906 127.95 4.4906V4.50046Z" fill="#FFC71F"/>
</g>
<defs>
<clipPath id="clip0_120_532">
<rect width="145.408" height="15" fill="white" transform="translate(2.25 4.5)"/>
</clipPath>
</defs>
</svg>
