<svg width="192" height="24" viewBox="0 0 192 24" fill="none" xmlns="http://www.w3.org/2000/svg">
<g clip-path="url(#clip0_50_983)">
<path d="M128.285 2.13408C123.119 2.13408 122.571 3.95745 121.974 4.75872C120.791 3.1057 118.922 2.13408 116.713 2.13408C114.448 2.13408 112.994 2.25395 111.698 3.77448V2.55049H107.444V20.6139H111.698V9.54113C111.698 7.3392 113.334 5.7682 115.637 5.7682C117.726 5.7682 119.155 7.44646 119.155 9.81874V20.6139H123.301V9.54113C123.301 7.3392 124.906 5.7682 127.241 5.7682C129.298 5.7682 130.727 7.44646 130.727 9.81874V20.6139H134.874V9.11841C134.874 5.03002 132.054 2.12777 128.291 2.12777L128.285 2.13408ZM12.256 17.2636C10.3556 17.2636 8.97124 16.3993 8.10286 15.15L17.5732 11.4528L20.6692 10.273C20.1784 5.20668 16.3965 2.13408 12.042 2.13408C6.91985 2.13408 2.88 6.11521 2.88 11.5349C2.88 17.087 7.1338 21.0366 12.2874 21.0366C14.8989 21.0366 18.0389 19.9198 19.6057 18.2416L16.9251 15.4466C15.912 16.4939 13.9298 17.2636 12.256 17.2636V17.2636ZM7.03312 11.8882C6.8758 8.95437 8.58739 5.90701 12.2182 5.90701C14.0934 5.90701 15.4463 6.79661 16.3336 8.10893L7.03312 11.8819V11.8882ZM33.2292 21.0366C36.086 21.0366 38.4898 19.8504 40.2329 17.9955L37.376 15.516C36.3629 16.6706 34.8338 17.4024 33.267 17.4024C30.3031 17.4024 27.8302 14.7463 27.8302 11.5664C27.8302 8.42439 30.3031 5.7682 33.267 5.7682C34.8023 5.7682 36.3 6.50008 37.2753 7.58527L40.1322 5.06788C38.4269 3.28867 36.0231 2.13408 33.3047 2.13408C28.0441 2.13408 23.6204 6.43067 23.6204 11.5664C23.6204 16.7021 28.0441 21.0366 33.2355 21.0366H33.2292ZM51.9056 21.0366C57.1348 21.0366 61.5585 16.7021 61.5585 11.5664C61.5585 6.43067 57.1348 2.13408 51.9056 2.13408C46.6765 2.13408 42.2528 6.43067 42.2528 11.5664C42.2528 16.7021 46.6765 21.0366 51.9056 21.0366ZM51.9056 17.4024C48.9104 17.4024 46.3996 14.7463 46.3996 11.5664C46.3996 8.42439 48.9104 5.7682 51.9056 5.7682C54.8694 5.7682 57.3739 8.42439 57.3739 11.5664C57.3739 14.7463 54.8631 17.4024 51.9056 17.4024ZM75.075 2.13408C72.7027 2.13408 70.9533 2.43061 69.4997 3.88174V2.55049H65.2459V20.6139H69.4997V9.18781C69.7766 7.26349 71.6266 5.76189 73.8542 5.76189C76.0818 5.76189 77.6549 7.50955 77.6549 9.95123V20.6075H81.764V9.1121C81.764 5.02371 79.0141 2.12146 75.075 2.12146V2.13408ZM98.5589 2.5568V13.9828C98.2821 15.9008 96.432 17.4088 94.2045 17.4088C91.9769 17.4088 90.4037 15.6611 90.4037 13.2194V2.56311H86.2947V14.0585C86.2947 18.1469 89.0445 21.0492 92.9837 21.0492C95.356 21.0492 97.3067 20.5949 98.5589 19.2447V20.6265H102.813V2.56311H98.5589V2.5568Z" fill="#262626"/>
<path fill-rule="evenodd" clip-rule="evenodd" d="M179.425 1.90056C176.845 1.90056 174.511 2.92266 172.786 4.58199C173.542 5.56623 174.139 6.68297 174.542 7.88172C175.65 6.38012 177.424 5.4085 179.425 5.4085C182.779 5.4085 185.497 8.13409 185.497 11.4969C185.497 14.8597 182.779 17.5853 179.425 17.5853C177.424 17.5853 175.643 16.6137 174.542 15.1121C174.139 16.3172 173.542 17.4276 172.786 18.4119C174.511 20.0712 176.845 21.0933 179.425 21.0933C184.711 21.0933 189.002 16.7967 189.002 11.4906C189.002 6.19084 184.717 1.88794 179.425 1.88794V1.90056ZM148.132 1.90056C142.846 1.90056 138.555 6.19715 138.555 11.5032C138.555 16.803 142.84 21.1059 148.132 21.1059C153.418 21.1059 157.709 16.8093 157.709 11.5032C157.709 6.20346 153.424 1.90056 148.132 1.90056ZM148.132 5.41481C144.778 5.41481 142.06 8.1404 142.06 11.5032C142.06 14.8661 144.778 17.5917 148.132 17.5917C151.486 17.5917 154.204 14.8661 154.204 11.5032C154.204 8.1404 151.486 5.41481 148.132 5.41481ZM163.775 1.90056C161.195 1.90056 158.861 2.92266 157.137 4.58199C157.892 5.56623 158.49 6.68297 158.892 7.88172C160 6.38012 161.774 5.4085 163.775 5.4085C167.129 5.4085 169.848 8.13409 169.848 11.4969C169.848 14.8597 167.129 17.5853 163.775 17.5853C161.774 17.5853 159.994 16.6137 158.892 15.1121C158.49 16.3172 157.892 17.4276 157.137 18.4119C158.861 20.0712 161.195 21.0933 163.775 21.0933C169.061 21.0933 173.353 16.7967 173.353 11.4906C173.353 6.19084 169.067 1.88794 163.775 1.88794V1.90056Z" fill="white"/>
</g>
<defs>
<clipPath id="clip0_50_983">
<rect width="186.122" height="19.2" fill="white" transform="translate(2.88 1.90002)"/>
</clipPath>
</defs>
</svg>
