<svg width="168" height="32" viewBox="0 0 168 32" fill="none" xmlns="http://www.w3.org/2000/svg">
<path fill-rule="evenodd" clip-rule="evenodd" d="M144.328 16.0033C144.328 10.4761 148.798 6.00049 154.304 6.00049C159.817 6.00049 164.281 10.4827 164.281 16.0033C164.281 21.5304 159.81 26.0061 154.304 26.0061C148.792 26.0061 144.328 21.5239 144.328 16.0033ZM147.979 16.0033C147.979 12.5003 150.811 9.66116 154.304 9.66116C157.798 9.66116 160.63 12.5003 160.63 16.0033C160.63 19.5062 157.798 22.3454 154.304 22.3454C150.811 22.3454 147.979 19.5062 147.979 16.0033Z" fill="#333333"/>
<path d="M127.265 8.66931C127.861 7.75007 128.838 6.24386 133.63 6.24386L133.637 6.23729C137.557 6.23729 140.493 9.26046 140.493 13.5192V25.4936H136.174V14.2487C136.174 11.7776 134.686 10.0294 132.542 10.0294C130.11 10.0294 128.439 11.6659 128.439 13.9595V25.4936H124.119V14.2487C124.119 11.7776 122.631 10.0294 120.455 10.0294C118.056 10.0294 116.352 11.6659 116.352 13.9595V25.4936H111.921V6.67762H116.352V7.95261C117.702 6.36873 119.216 6.24386 121.576 6.24386C123.877 6.24386 125.824 7.25597 127.056 8.97786C127.124 8.88648 127.192 8.78233 127.265 8.66931Z" fill="#333333"/>
<path fill-rule="evenodd" clip-rule="evenodd" d="M8.44047 19.8022C9.34504 21.1034 10.7871 22.0038 12.7666 22.0038C14.5102 22.0038 16.575 21.202 17.6303 20.1111L20.4226 23.0225C18.7905 24.7707 15.5196 25.934 12.7994 25.934C7.43104 25.934 3 21.8198 3 16.0363C3 10.3909 7.20817 6.24386 12.5438 6.24386C17.0797 6.24386 21.0191 9.44448 21.5304 14.7219L18.3054 15.9509L8.44047 19.8022ZM12.7273 10.174C8.94519 10.174 7.16229 13.3483 7.32616 16.4044V16.3978L17.0141 12.4677C16.0899 11.1007 14.6806 10.174 12.7273 10.174Z" fill="#333333"/>
<path d="M41.9092 22.7662C40.0935 24.6984 37.5896 25.934 34.6137 25.934H34.6203C29.2126 25.934 24.6046 21.4189 24.6046 16.0692C24.6046 10.7195 29.2126 6.24386 34.6924 6.24386C37.5241 6.24386 40.028 7.44656 41.8043 9.2999L38.8285 11.9222C37.8125 10.7918 36.2524 10.0294 34.6531 10.0294C31.5658 10.0294 28.9897 12.7963 28.9897 16.0692C28.9897 19.3815 31.5658 22.1484 34.6531 22.1484C36.2852 22.1484 37.878 21.386 38.9333 20.1833L41.9092 22.7662Z" fill="#333333"/>
<path fill-rule="evenodd" clip-rule="evenodd" d="M64.1234 16.0692C64.1234 21.4189 59.5154 25.934 54.0684 25.934C48.6213 25.934 44.0133 21.4189 44.0133 16.0692C44.0133 10.7195 48.6213 6.24386 54.0684 6.24386C59.5154 6.24386 64.1234 10.7195 64.1234 16.0692ZM48.3329 16.0692C48.3329 19.3815 50.9483 22.1484 54.0684 22.1484C57.1491 22.1484 59.7645 19.3815 59.7645 16.0692C59.7645 12.7963 57.1557 10.0294 54.0684 10.0294C50.9483 10.0294 48.3329 12.7963 48.3329 16.0692Z" fill="#333333"/>
<path d="M72.3955 8.06434C73.9097 6.55275 75.7319 6.24386 78.2031 6.24386V6.23071C82.3064 6.23071 85.1708 9.25389 85.1708 13.5126V25.4871H80.8905V14.3867C80.8905 11.8433 79.2519 10.0228 76.9315 10.0228C74.6111 10.0228 72.684 11.587 72.3955 13.5915V25.4936H67.9645V6.67762H72.3955V8.06434Z" fill="#333333"/>
<path d="M102.666 18.5863V6.69076H107.097V25.5068H102.666V24.0675C101.361 25.4739 99.3292 25.9471 96.858 25.9471C92.7547 25.9471 89.8903 22.9239 89.8903 18.6652V6.69076H94.1705V17.7911C94.1705 20.3345 95.8092 22.155 98.1296 22.155C100.45 22.155 102.377 20.5842 102.666 18.5863Z" fill="#333333"/>
</svg>
